<?xml version="1.0" encoding="UTF-8"?>
<svg xmlns="http://www.w3.org/2000/svg" xmlns:xlink="http://www.w3.org/1999/xlink" width="14px" height="14px" viewBox="0 0 14 14" version="1.1">
<g id="surface1">
<path style=" stroke:none;fill-rule:nonzero;fill:rgb(0%,0%,0%);fill-opacity:1;" d="M 11.425781 3.898438 C 10.230469 3.644531 9.339844 2.640625 9.226562 1.425781 L 9.226562 1.167969 L 7.21875 1.167969 L 7.21875 9.140625 C 7.214844 9.867188 6.753906 10.507812 6.066406 10.738281 C 5.378906 10.96875 4.621094 10.734375 4.183594 10.160156 L 4.183594 10.15625 L 4.183594 10.160156 C 3.738281 9.574219 3.726562 8.765625 4.148438 8.164062 C 4.574219 7.5625 5.339844 7.304688 6.039062 7.527344 L 6.039062 5.484375 C 4.476562 5.269531 2.949219 6.070312 2.238281 7.480469 C 1.527344 8.890625 1.792969 10.59375 2.894531 11.722656 C 3.945312 12.796875 5.539062 13.128906 6.929688 12.5625 C 8.320312 11.996094 9.226562 10.644531 9.226562 9.144531 L 9.226562 5.066406 C 10.039062 5.648438 11.011719 5.960938 12.011719 5.957031 L 12.011719 3.960938 C 11.816406 3.960938 11.621094 3.941406 11.425781 3.898438 Z M 11.425781 3.898438 "/>
</g>
</svg>
