<?xml version="1.0" encoding="UTF-8"?>
<svg xmlns="http://www.w3.org/2000/svg" xmlns:xlink="http://www.w3.org/1999/xlink" width="14px" height="14px" viewBox="0 0 14 14" version="1.1">
<g id="surface1">
<path style=" stroke:none;fill-rule:nonzero;fill:rgb(100%,100%,100%);fill-opacity:1;" d="M 12.574219 3.679688 C 10.953125 3.679688 9.640625 2.367188 9.640625 0.746094 L 7.4375 0.746094 L 7.4375 9.261719 C 7.4375 10.253906 6.636719 11.054688 5.644531 11.054688 C 4.65625 11.054688 3.851562 10.253906 3.851562 9.261719 C 3.851562 8.273438 4.65625 7.46875 5.644531 7.46875 C 5.832031 7.46875 6.042969 7.496094 6.210938 7.550781 L 6.210938 5.308594 C 6.023438 5.285156 5.835938 5.269531 5.644531 5.269531 C 3.441406 5.269531 1.652344 7.058594 1.652344 9.261719 C 1.652344 11.46875 3.441406 13.257812 5.644531 13.257812 C 7.851562 13.257812 9.640625 11.46875 9.640625 9.261719 L 9.640625 4.753906 C 10.4375 5.410156 11.460938 5.800781 12.574219 5.800781 Z M 12.574219 3.679688 "/>
</g>
</svg>
